<svg version="1.2" xmlns="http://www.w3.org/2000/svg" viewBox="0 0 400 400" width="400" height="400">
	<style>
		.s0 { fill: #f9a536 } 
	</style>
	<path id="&lt;Path&gt;" class="s0" d="m100.81 114.08h-72.58c-7.86 0-14.23-6.37-14.23-14.23v-77.62c0-7.86 6.37-14.23 14.23-14.23h72.58c7.86 0 14.23 6.37 14.23 14.23v77.62c0 7.86-6.37 14.23-14.23 14.23z"/>
	<path id="&lt;Path&gt;" class="s0" d="m100.91 391.88h-72.58c-7.86 0-14.23-6.37-14.23-14.23v-77.62c0-7.86 6.37-14.23 14.23-14.23h72.58c7.86 0 14.23 6.37 14.23 14.23v77.62c0 7.86-6.37 14.23-14.23 14.23z"/>
	<path id="&lt;Path&gt;" class="s0" d="m372.38 391.88h-209.54c-7.86 0-14.23-6.37-14.23-14.23v-77.62c0-7.86 6.37-14.23 14.23-14.23h209.54c7.86 0 14.23 6.37 14.23 14.23v77.62c0 7.86-6.37 14.23-14.23 14.23z"/>
	<path id="&lt;Path&gt;" fill-rule="evenodd" class="s0" d="m202.19 115.5c-29.71 0-53.73-24.01-53.73-53.72 0-29.71 24.02-53.72 53.73-53.72 29.71 0 53.72 24.01 53.72 53.72 0 29.71-24.01 53.72-53.72 53.72z"/>
	<path id="&lt;Path&gt;" fill-rule="evenodd" class="s0" d="m332.79 115.5c-29.71 0-53.73-24.01-53.73-53.72 0-29.71 24.02-53.72 53.73-53.72 29.71 0 53.72 24.01 53.72 53.72 0 29.71-24.01 53.72-53.72 53.72z"/>
	<path id="&lt;Path&gt;" class="s0" d="m100.81 252.87h-72.58c-7.86 0-14.23-6.37-14.23-14.23v-77.62c0-7.86 6.37-14.23 14.23-14.23h72.58c7.86 0 14.23 6.37 14.23 14.23v77.62c0 7.86-6.37 14.23-14.23 14.23z"/>
	<path id="&lt;Path&gt;" fill-rule="evenodd" class="s0" d="m202.19 254.29c-29.71 0-53.73-24.01-53.73-53.72 0-29.71 24.02-53.72 53.73-53.72 29.71 0 53.72 24.01 53.72 53.72 0 29.71-24.01 53.72-53.72 53.72z"/>
	<path id="&lt;Path&gt;" fill-rule="evenodd" class="s0" d="m332.79 254.29c-29.71 0-53.73-24.01-53.73-53.72 0-29.71 24.02-53.72 53.73-53.72 29.71 0 53.72 24.01 53.72 53.72 0 29.71-24.01 53.72-53.72 53.72z"/>
</svg>