<?xml version="1.0" encoding="UTF-8"?>
<!DOCTYPE svg PUBLIC "-//W3C//DTD SVG 1.1//EN" "http://www.w3.org/Graphics/SVG/1.1/DTD/svg11.dtd">
<svg xmlns="http://www.w3.org/2000/svg" xml:space="preserve" width="403.334mm" height="249.815mm" version="1.1" style="shape-rendering:geometricPrecision; text-rendering:geometricPrecision; image-rendering:optimizeQuality; fill-rule:evenodd; clip-rule:evenodd"
viewBox="0 0 140563.43 87061.46"
 xmlns:xlink="http://www.w3.org/1999/xlink">
 <defs>
  <style type="text/css">
   <![CDATA[
    .fil1 {fill:#F8941A}
    .fil0 {fill:#FCC790}
   ]]>
  </style>
 </defs>
 <g id="Capa_x0020_1">
  <g id="_3025522239488">
   <path class="fil0" d="M91089.02 10173.6c-1551.02,221.4 -1390.43,1353.8 -1391.51,2872.68 -3.45,4952.59 -364.12,4643.23 3833.09,4665.67 2148.42,11.5 20214.7,106.85 21151.97,-36.14 1386.45,-211.54 1203.7,-1591.72 1204.95,-2877.32 5.58,-5767.29 790.16,-4507.34 -7970.39,-4660.65 -2818.7,-49.31 -5662.46,5.72 -8484.37,10.25 -1249.91,2.02 -7681.28,-69.07 -8343.75,25.51z"/>
   <path class="fil0" d="M115321.14 39849.18c-1515.26,179.44 -1359.55,1258.13 -1354.36,2707.88 3.07,864.15 -120.23,3320.62 122.6,3976.43 419.04,1131.77 1930.23,837.63 3234.29,848.71 2014.95,17.11 19264.02,94.65 20191.25,-33.84 1437.68,-199.24 1255.28,-1379.31 1247.51,-2762.42 -26.77,-4763.35 478.64,-4739.34 -3363.38,-4750.32 -2143.13,-6.13 -19109,-101.17 -20077.92,13.56z"/>
   <path class="fil0" d="M89740.83 79497.17c-1235.48,407.96 -1005.64,1686.45 -1004.11,2991.66 6.06,5131.9 -948.35,4450.61 7468.3,4462.94 1979.71,2.89 15034.09,141 15831.04,-66.08 1219.42,-316.86 1005.75,-1708.44 1008.85,-2921.34 2.02,-792.92 130.51,-3216.17 -140.69,-3784.93 -473.44,-992.96 -2082.21,-740.15 -3234.92,-752.98 -2676.86,-29.73 -19249.87,-153.34 -19928.48,70.71z"/>
   <path class="fil0" d="M23626.77 276.12c-1341.01,179.86 -1338.74,1236.67 -1340.49,2533.63 -7.81,5816.85 -823.27,5029.12 6505,5033.34 1120.23,0.63 14457.38,69.28 15208.3,-61.2 1293.72,-224.82 1157.59,-1358.09 1156.27,-2574.4 -6.17,-5669.43 999.02,-4960.5 -6404.67,-4975.87 -2520.45,-5.26 -5041.57,7.18 -7562.12,5.92l-7562.3 38.58z"/>
   <path class="fil1" d="M43554.17 10243.62c-1235.1,311.28 -1077.78,1388.06 -1072,2710.46 23.42,5329.81 -1053.95,4787.65 6597.81,4767.71 1096.12,-2.86 14430.34,100.89 15124.24,-63.39 1173.48,-277.76 1067.68,-1463.33 1066.91,-2675.47 -2.68,-4254.22 601.66,-4818.77 -2726.87,-4795.9 -1286.36,8.82 -2584.82,-11.71 -3873.28,-16.07 -1905.41,-6.41 -14314.25,-129.61 -15116.82,72.66z"/>
   <path class="fil0" d="M47517.46 29979.09c-1368.54,265.46 -1153.69,1243.71 -1158.57,2618.07 -3.66,1017.39 -110.62,2800.96 23.21,3732.13 188.09,1309.16 1397.92,1156.34 2605.66,1154.11l11343.18 21.54c1260.37,4.18 2520.77,2.13 3781.1,-1.53 981.25,-2.86 2880.98,92.77 3759.63,-50.5 1240.15,-202.2 1126.99,-1423.19 1125.63,-2642.43 -1.53,-1341.98 281.07,-3685.92 -322.47,-4377.7 -562.66,-644.87 -1356.76,-477.21 -2349.48,-490.17 -1824.84,-23.87 -17994.11,-121.38 -18807.9,36.49z"/>
   <path class="fil0" d="M71715.95 59512.73c-1189.24,420.05 -913.15,1430.78 -918.62,2779.67 -2.82,696.97 -83.95,3181.7 49.91,3678.11 324.28,1202.93 1893.88,954.9 2855.82,953.51 3249.1,-4.67 17932.49,204.19 18828.98,-103.85 1021.47,-351.01 855.37,-1655.46 855.44,-2775.56 0.07,-774.72 91.2,-3061.96 -71.09,-3658.46 -316.13,-1161.84 -1539.73,-972.71 -2829.09,-979.37 -3231.19,-16.69 -17852.96,-218.41 -18771.34,105.95z"/>
   <path class="fil1" d="M24754.14 59499.45c-1311.91,314.63 -1092.8,1310.48 -1088.13,2608.52 19.62,5473.33 -1027.11,4831.21 6508.59,4821.76 1110.72,-1.39 14306.76,99.64 15009.66,-47.85 1237.99,-259.81 1080.4,-1361.43 1077.19,-2652.85 -13.63,-5464.48 916.11,-4802.81 -6588.05,-4796.53l-11250.97 3.24c-779.19,-0.63 -3074.92,-78.59 -3668.28,63.71z"/>
   <path class="fil1" d="M23787.6 20152.15c-1336.16,267.13 -1147.87,1189.06 -1150.03,2577.36 -8.68,5603.39 -925.03,4861.91 6338.18,4882.72 2489.68,7.11 4980.4,28.96 7469.91,18.09 1141.98,-4.98 6790.81,63.53 7420.07,-67.57 1175.61,-244.93 1079.94,-1456.05 1082.38,-2619.91 1.85,-876.24 102.43,-3014.87 -59.07,-3751.3 -261.55,-1192.76 -1287.2,-1089.04 -2541.22,-1085.56 -2001.11,5.51 -17729.28,-119.96 -18560.22,46.18z"/>
   <path class="fil1" d="M94313.31 30003.21c-1271.66,301.04 -1094.09,1294.8 -1097.2,2593.99 -2.3,979.82 -100.16,2802.71 34.5,3686.16 191.57,1256.74 1162.78,1188.5 2401.09,1193.63 2679.02,11.12 17392.13,179.69 18282,-68.13 1121.77,-312.36 958.63,-1479.16 957.69,-2598.38 -3.31,-3996.05 592.28,-4862.96 -2363.14,-4869.3 -1906.74,-4.11 -17416.95,-126.86 -18214.95,62.03z"/>
   <path class="fil1" d="M119373.02 59504.12c-1171.78,358.79 -980.8,1282.36 -983.44,2603.85 -1.85,928.31 -110.65,2811.14 18.12,3629.91 190.07,1208.44 1270.65,1176.65 2512.61,1174.91 1229.42,-1.71 2459.39,1.46 3688.85,3.8 2428.69,4.64 4856.89,3.17 7285.48,5.68 1341.11,1.36 6395.68,171.19 7326.99,-75.87 1105.98,-293.41 963.44,-1420.12 956.19,-2617.37 -32.59,-5387.32 973.72,-4837.62 -6254.33,-4839.05 -2428.27,-0.49 -4856.86,-19.83 -7285.44,-7.46 -1273.05,6.48 -6454.71,-126.51 -7265.02,121.59z"/>
   <path class="fil0" d="M24768.02 39852.67c-1301.18,127.94 -1374.47,1085 -1376.24,2335.5 -8.43,5874.66 -834.11,5201.88 5952.87,5204.42 1220.15,0.45 13802.23,104.13 14655.57,-50.08 1233.95,-223.01 1153.69,-1183.59 1154.45,-2387.64 0.8,-1213.74 26.56,-2462.98 -3.97,-3672.82 -31.99,-1267.68 -985.36,-1437.34 -2156.2,-1431.55 -1227.95,6.03 -2461.07,-11.05 -3690,-15.06l-14536.49 17.22z"/>
   <path class="fil1" d="M43766.58 79522.06c-1149.72,381.4 -953.47,1394.23 -950.44,2690.14 12.37,5302.56 -891.89,4696.65 6079.38,4742.76 1922.14,12.72 13385.31,208.16 14309.72,-120.62 1058.23,-376.35 915.35,-1471.52 915.31,-2685.5 -0.28,-5368.74 810.66,-4661.14 -6095.13,-4740.53 -1903.98,-21.89 -13349.8,-187.81 -14258.84,113.75z"/>
   <path class="fil0" d="M98272.56 49730.32c-1203.07,288.84 -1059.35,1382.97 -1058.72,2602.18 2.2,4166.82 -513.66,4782.56 2403.35,4783.88l10789.9 30.88c7674.34,-3.69 8117.78,786.09 8114.12,-2693.66 -1.15,-1061.09 89.22,-2576.7 -30.22,-3583.49 -146.2,-1232.69 -1190.73,-1228.37 -2366.17,-1221.54l-10789.9 -35.55c-1479.33,5.99 -5923.49,-156.13 -7062.37,117.31z"/>
   <path class="fil1" d="M2301.14 29962.29c-1173.27,190 -1141.35,1221.82 -1135.46,2358.19 30.11,5815.31 -890.15,5163.51 5584.74,5162.29 2397.71,-0.45 4795.45,18.78 7193.26,17.15 1198.89,-0.84 2397.92,3.55 3596.63,2.27 3920.6,-4.15 4679.82,493.97 4668.94,-2414.96 -13.87,-3704.42 589.39,-5152.6 -1993.1,-5143.15l-14387.96 -7.74c-874.75,3.69 -2785.98,-94.03 -3527.07,25.96z"/>
   <path class="fil0" d="M70790.64 39863.09c-1263.19,213.18 -1297.45,1045.93 -1289.47,2325.08 36.73,5874.87 -856.76,5159.53 5585.2,5204.42 1090.92,7.6 13376.7,101.66 14191.58,-48.79 1119.08,-206.59 1126.64,-1221.54 1126.85,-2388.96 1.08,-5796.74 755.87,-5094.05 -5542.99,-5122.28 -915.8,-4.11 -13448.98,-74.48 -14071.17,30.53z"/>
   <path class="fil0" d="M108908.83 69429.55c-1213.94,172.2 -1238.86,1048.27 -1231.2,2269.32 7.35,1169.72 -2.2,2338.78 1.81,3508.29 4.22,1233.57 351.61,1793.44 1617.86,1801.24 1983.79,12.2 16412.94,116.85 17480.69,-10.14 1246.01,-148.15 1257.02,-1084.13 1264.72,-2255.97 7.63,-1163.59 30.18,-2342.54 15.26,-3505.85 -15.96,-1242.8 -458.49,-1798.91 -1692.27,-1827.52 -3370.42,-78.2 -7121.86,-19.62 -10517.58,-20.35 -1071.86,-0.24 -6310.82,-48.16 -6939.31,40.98z"/>
   <path class="fil1" d="M43531.44 49702.82c-1063.7,246.18 -1051.89,1178.26 -1053.98,2260.68 -2.23,1138.18 -2.89,2278.49 0.77,3416.56 3.87,1204.92 395.62,1722.69 1617.65,1738.79 1775.28,23.42 16034.95,135.25 16924.96,-43.39 413.85,-83.05 744.51,-337.14 908.06,-747.16 183.56,-460.06 132.71,-1001.43 131.39,-1505.71 -2.93,-1137.76 -6.59,-2278.52 2.44,-3416.11 9.72,-1230.01 -408.06,-1722.52 -1635.6,-1759.6 -1112.81,-33.63 -2294.55,-6.55 -3416.14,-13.66 -1769.7,-11.26 -12658.16,-120.48 -13479.55,69.6z"/>
   <path class="fil0" d="M112649.36 203.67c-1175.47,281.9 -1083.12,980.13 -1082.84,2236.98 0.24,1107.79 -1.18,2215.09 -3.66,3322.88 -5.54,2485.15 1442.42,1966.19 4746.38,1957.34 1971.28,-5.3 12422.26,134.03 13432.5,-68.34 1110.02,-222.35 1085.9,-1088.41 1086.25,-2260.61 0.31,-1106.92 2.3,-2213.31 5.58,-3320.37 7.35,-2476.12 -1641,-1943.43 -4841.11,-1950.86 -2243.04,-5.19 -4489.33,-14.25 -6732.16,-2.47 -1333.69,7 -5625.8,-150.83 -6610.95,85.45z"/>
   <path class="fil0" d="M1077.23 79527.49c-1110.4,380.43 -941.21,1188.5 -943.57,2408.02 -2.2,1107.65 0.91,2216.31 5.92,3323.96 5.65,1250.85 365.89,1666.02 1628.46,1677.77 2768.06,25.79 16032.9,161.36 16719.76,-92.49 917.65,-339.13 846.48,-1372.9 845.71,-2419.25 -0.77,-1104.48 8.43,-2216.66 -1.46,-3320.02 -9.76,-1083.6 -547.95,-1623.26 -1602.98,-1682.96 -2380.11,-134.7 -16052.38,-100.44 -16651.84,104.97z"/>
   <path class="fil1" d="M66297.79 69430.32c-1095.8,202.93 -1205.62,1045.09 -1207.67,2176.41 -1.99,1105.91 -6.31,2214.4 -2.75,3320.06 3.55,1101.73 174.88,1964.48 1268.56,2067.54 578.52,54.51 16029.94,72.28 16594.65,-24.92 1047.85,-180.32 1132.08,-1069.7 1130.55,-2134.38 -1.57,-1107.44 -1.18,-2214.74 0,-3322.22 1.18,-1076.49 -143.58,-1910.74 -1192.02,-2085.41 -761.83,-126.93 -11302.44,-43.18 -13243.78,-40.5 -773.3,1.08 -2718.82,-73.01 -3347.52,43.42z"/>
   <path class="fil0" d="M1243.81 10251.6c-1206.17,164.77 -1246.18,969.36 -1243.32,2149.12 2.72,1106.67 -2.79,2213.77 0.77,3320.23 8.64,2674.7 1216.52,2056.98 4720.31,2067.47 969.12,2.89 12691.44,66.15 13351.44,-66.18 1047.57,-210.01 1087.79,-1131.98 1089.63,-2185.54 1.92,-1107.79 -5.51,-2215.34 -3.69,-3323.06 4.29,-2592.52 -1624.87,-1999.16 -4661.94,-1999.58l-13253.19 37.53z"/>
   <path class="fil0" d="M1078.79 49736.56c-1145.67,296.96 -1017.98,1153.93 -1011.92,2411.51 5.3,1096.39 -24.29,2233.7 2.65,3322.67 31.16,1258.62 457.73,1654.84 1697.81,1657.49 2909.45,6.2 15627.9,206.14 16514.25,-91.76 991.67,-333.31 929.77,-1271.94 927.26,-2398.41 -6.73,-3030.45 522.93,-4903.91 -1664.35,-4980.58 -2145.77,-75.24 -15743.08,-108.21 -16465.71,79.08z"/>
   <path class="fil0" d="M23811.65 69445.58c-1107.58,182.58 -1249.46,852.82 -1255.7,1974.94 -6.13,1106.99 -0.21,2214.78 -2.2,3321.91 -2.02,1137.87 -9.17,2017.46 1056.07,2227.71 609.46,120.34 2497.69,50.18 3244.82,52.45 1190.28,3.59 12331.85,86.05 13250.72,-24.6 1113.12,-134.03 1217.08,-846.83 1216.49,-1978.07 -0.59,-1106.74 -1.46,-2214.29 3.14,-3321.04 11.22,-2697.63 -810.86,-2294.83 -4326.02,-2304.94 -923.01,-2.65 -12540.26,-54.99 -13187.33,51.65z"/>
   <path class="fil0" d="M70545.22 20091.65c-1039.55,130.55 -1224.54,829.54 -1217.85,1897.22 6.8,1076.53 -8.57,2154.24 -2.72,3230.7 14.53,2675.12 302.95,2364.77 4009.51,2393.07 1959.05,14.95 11705.03,106.85 12876.15,-27.71 1037.81,-119.26 1233.53,-913.29 1241.34,-1902.8 8.5,-1074.61 -1.88,-2154 -0.94,-3229.31 2.37,-2688.47 -483.31,-2357.07 -4064.43,-2373.35 -990.87,-4.5 -12113.31,-79.21 -12841.05,12.16z"/>
   <path class="fil1" d="M112876.76 20095.34c-1014.98,169.27 -1172.86,968.84 -1158.95,1987.34 14.67,1072.03 6.55,2156.26 1.74,3229.1 -4.81,1064.85 -97.3,1872.86 921.55,2192.86 629.43,197.74 8489.94,116.26 9478.09,113.33 1383.94,-4.11 5211.98,167.07 6315.14,-52.94 998.92,-199.2 1123.44,-889.63 1121.49,-1974.83 -1.92,-1076.63 0.7,-2153.23 3.66,-3229.87 7.46,-2712.2 -629.05,-2249.18 -4028.12,-2318.18 -723.25,-14.67 -12030.99,-50.85 -12654.6,53.18z"/>
   <path class="fil1" d="M70668.87 191.02c-994.91,176.9 -1233.25,815.29 -1237.61,1880.32 -4.29,1044.85 6.31,2091.13 4.22,3136.15 -1.99,998.64 -60.33,2028.82 778.14,2381.61 543.32,228.62 2322.75,126.26 3028.33,135.64 2054.05,27.25 4123.26,7.42 6178.8,5.61 1038.61,-0.91 5624.4,68.97 6261.02,-41.02 960.97,-166.06 1112.18,-891.65 1110.82,-1927.51 -1.39,-1045.79 -3.38,-2090.61 -0.31,-3136.54 8.15,-2795.63 -453.82,-2436.53 -3774.89,-2483.06 -818.39,-11.43 -11710.75,-64.58 -12348.51,48.79z"/>
   <path class="fil0" d="M2637.65 39859.29c-1428.76,333.27 -1169.89,1477.38 -1161.6,2882.23 4.74,799.05 -104.76,3349.16 149.96,3924.12 450.09,1015.89 2066.07,739.98 3187.77,742.77 4724.01,11.78 5097.08,562.8 5106.84,-2914.71 13.03,-4659.12 418.76,-4687.42 -3354.63,-4690.2 -856.34,-0.63 -3254.4,-101.41 -3928.34,55.8z"/>
   <path class="fil0" d="M66328.35 49619.57c-1437.93,215.48 -1336.06,1281.48 -1333.2,2620.72 1.81,851.47 -97.09,3266.88 73.74,3930.01 320.38,1243.5 1797.06,1004.25 3008.64,1000.45 1166.06,-3.66 2974.24,106.61 4060.32,-22.23 1482.19,-175.82 1312.5,-1286.19 1317.62,-2694.91 3.28,-903.5 125.71,-3244.61 -133.27,-3959.15 -401.96,-1109.08 -1767.72,-894.05 -3031.36,-886.21 -1042.1,6.45 -3055.2,-124.66 -3962.49,11.33z"/>
   <path class="fil0" d="M90598.43 199.03c-1244.61,377.57 -963.93,1710.67 -965.46,3071.82 -0.98,849.76 -149.4,3171.53 185.33,3803.78 515.02,972.85 2012.82,690.56 3251.2,688.89 787.55,-1.08 3352.92,98.42 3939.18,-87.2 1162.85,-368.23 926.05,-1805.95 921.93,-3022.16 -2.82,-824.94 118.25,-3180.1 -155.99,-3780.26 -467.69,-1023.56 -2016.31,-777.41 -3229.59,-777.06 -824.91,0.24 -3329.23,-85.07 -3946.6,102.18z"/>
   <path class="fil0" d="M49325.71 39828.06c-1434.34,229.32 -1231.54,1330.83 -1220.81,2729 6.97,908.86 -115.77,3127.23 49.91,3874.29 275.49,1242.03 1656.58,982.19 2954.03,975.74 1185.89,-5.92 2805.49,96.74 3935.34,-17.74 1387.26,-140.55 1281.66,-1448.56 1277.69,-2711.19 -15.23,-4815.18 425.49,-4888.89 -3091.93,-4885.37 -1013.94,1.01 -3019.61,-106.15 -3904.22,35.27z"/>
   <path class="fil0" d="M48827.31 20125.42c-1295.11,375.93 -1047.08,1554.68 -1053.63,2880.77 -23.45,4735.16 -327.59,4679.89 3335.15,4657.1 887.29,-5.51 3204.08,96.54 3922.94,-92.77 1175.68,-309.58 985.81,-1673.52 985.12,-2904.36 -2.61,-4560.11 391.72,-4655.32 -3340.27,-4625.35 -836.65,6.73 -3219.97,-98.03 -3849.3,84.62z"/>
   <path class="fil0" d="M69463.78 10148.44c-1440.23,242.49 -1245.24,1523.8 -1251.65,2713.42 -26.21,4843.75 -423.71,4940.36 3093.15,4931.37 4682.95,-11.99 5039.82,511.12 5041.04,-2810.3 1.67,-4634.02 558.37,-4843.82 -3012.16,-4855.99 -948.07,-3.21 -3067.92,-113.61 -3870.38,21.5z"/>
   <path class="fil0" d="M68401.47 79425.63c-1447.02,180.42 -1326.06,1330.38 -1323.69,2694.32 8.54,4877.32 -499.23,4844.49 3028.64,4848.04 4697.45,4.77 5216.97,557.64 5205.5,-2726.94 -17.01,-4867.59 388.62,-4832.01 -3084.44,-4837.24 -1058.02,-1.6 -2854.84,-99.32 -3826.02,21.82z"/>
   <path class="fil0" d="M118747.28 29999.31c-1208.3,426.57 -907.57,1633.51 -911.41,2966.75 -13.63,4733.63 -378.37,4574.95 3268.86,4570.49 4542.3,-5.54 4841.42,511.22 4845.18,-3002.71 5.05,-4754.89 362.41,-4648.56 -3369.62,-4649.32 -832.58,-0.17 -3198.85,-109.08 -3833.02,114.8z"/>
   <path class="fil0" d="M25949.34 29987.6c-614.48,183.31 -784.62,396.21 -919.11,1051.02 -123.51,601.31 -142.02,5220.66 113.65,5762.27 459.92,974.31 1949.57,735.34 3094.09,733.15 4571.68,-8.85 4837.38,523.52 4838.18,-3000.2 1.08,-4803.61 315.36,-4626.78 -3270.4,-4644.27 -864.6,-4.22 -3177.14,-104.66 -3856.41,98.03z"/>
   <path class="fil1" d="M49188.89 198.19c-1379.21,272.77 -1172.19,1319.44 -1168.78,2703.76 11.88,4806.33 -510.98,4888.64 2904.29,4877 1057.81,-3.59 2986.61,112.22 3933.22,-18.82 1331.18,-184.25 1176.27,-1466.4 1177.91,-2737.12 6.1,-4754.85 414.13,-4887.18 -2990.06,-4873.76 -938.52,3.69 -3082.1,-104.27 -3856.58,48.93z"/>
   <path class="fil1" d="M116875.05 79509.09c-1227.61,385.17 -984.38,1612.28 -980.55,2979.75 12.93,4584.68 -382.45,4492.53 3273.6,4487.44 810.06,-1.12 3233.28,94.1 3848.18,-84.27 1183.21,-343.21 992.85,-1590.5 992.99,-2927.64 0.49,-4580.91 342.16,-4555.12 -3273.39,-4556.62 -831.88,-0.35 -3236.91,-94.41 -3860.83,101.35z"/>
   <path class="fil1" d="M131794.68 69444.68c-1353.8,305.22 -1148.6,1317.07 -1147.07,2715.4 1.01,875.83 -109.08,3183.38 48.23,3879.51 288.07,1274.86 1596.81,1035.72 2858.78,1034.5 4616.11,-4.43 5064.32,567.61 5060.59,-2792.95 -5.23,-4717.21 479.75,-4889.86 -2939.53,-4882.82 -840.66,1.71 -3239.45,-98.31 -3881.01,46.35z"/>
   <path class="fil0" d="M13576.95 59489.45c-1251.51,381.89 -986.23,1593.29 -983.23,2895.16 10.73,4696.2 -438.38,4633.96 3102.17,4634.16 862.55,0.07 3233.63,107.58 3924.26,-70.15 1241.27,-319.44 1008.26,-1582.77 1009.72,-2904.02 5.12,-4639.46 382.27,-4652.67 -3181.77,-4636.26 -797.06,3.66 -3289.53,-96.36 -3871.15,81.1z"/>
   <path class="fil0" d="M12846.94 20113.71c-1348.4,288.88 -1132.95,1492.68 -1127.2,2800.23 20.25,4603.25 -443.37,4738.72 3053.94,4732.72 4914.57,-8.43 5023.48,468.18 5034.39,-2888.3 14.88,-4573.14 364.4,-4674.24 -3097.75,-4704.98 -875.58,-7.81 -3143.02,-93.99 -3863.38,60.33z"/>
   <path class="fil1" d="M119840.15 10162.94c-1310.34,366.63 -1092.53,1487 -1090.16,2883.35 7.91,4670.76 -414.41,4707.7 3092.52,4699.33 4718.43,-11.22 4915.65,482.36 4901.85,-2947.13 -3,-749.7 89.25,-3253.25 -100.26,-3786.36 -393.04,-1105.77 -1786.5,-910.33 -2957.16,-909.39 -779.32,0.59 -3281.55,-97.96 -3846.79,60.19z"/>
   <path class="fil1" d="M2390.01 318.08c-1367.36,254.93 -1144.56,1369.62 -1138.11,2768.31 20.67,4503.48 -604.93,4839.05 2916.35,4832.29 4621.55,-8.89 5021.98,601.45 5023.09,-2895.65 1.5,-4541.6 446.47,-4776.91 -2994.24,-4757.26 -968.14,5.54 -2983.47,-101.24 -3807.09,52.31z"/>
   <path class="fil0" d="M97207.95 59481.68c-1202.44,416.36 -954.9,1712.58 -954.06,2995.18 1.53,2415.2 -455.56,4360.8 1330.03,4530.55 568.31,54.05 1350.38,10.52 1941.06,9.83 737.37,-0.87 3251.51,82.63 3789.77,-99.85 1144.14,-387.85 867.57,-1906.32 869.94,-2965 10.18,-4514.7 428,-4582.27 -3184.18,-4565.33 -753.78,3.55 -3261.06,-89.39 -3792.56,94.62z"/>
   <path class="fil0" d="M133179.32 20107.19c-1166.51,342.75 -929.74,1730.08 -932.25,2991.21 -9.17,4642.04 -337.39,4545.37 3244.19,4524.32 4565.68,-26.83 4699.93,486.58 4713.97,-3048.78 18.54,-4672.46 328.67,-4578.51 -3238.44,-4574.15 -863.87,1.08 -3102.45,-93.89 -3787.47,107.41z"/>
   <path class="fil1" d="M45128.39 69454.02c-1380.84,286.12 -1171.88,1298.42 -1170.14,2706.06 1.18,938.94 -108.21,3005.57 36.73,3799.5 229.63,1257.58 1568.44,1090.99 2779.46,1089.11 4655.91,-7.14 5058.08,582.87 5045.75,-2767.54 -16.83,-4577.32 557.36,-4882.44 -2832.43,-4875.4 -905.24,1.88 -3121.31,-104.66 -3859.37,48.27z"/>
   <path class="fil1" d="M2740.36 69470.64c-1439.95,239.11 -1229.21,1254.75 -1221.4,2689.44 24.92,4582.79 -607.83,4892.44 2833.72,4896.76 4581.89,5.75 5044.53,579 5040.76,-2775.7 -0.98,-883.14 106.47,-3062.55 -54.05,-3797.82 -272.15,-1246.46 -1524.43,-1057.64 -2773.4,-1053.88 -1005.05,3.03 -2945.17,-105 -3825.63,41.19z"/>
   <path class="fil0" d="M50128.42 59505.41c-1265.38,374.47 -993.45,1473.09 -1001.5,2879.2 -26.42,4625.97 -407.68,4657.51 3180.8,4637.44 4678.63,-26.14 4705.05,482.47 4718.19,-2977.45 2.86,-755.1 96.78,-3221.64 -104.1,-3780.61 -385.86,-1073.74 -1819.68,-844.88 -3046.34,-848.22 -808.36,-2.16 -3125.63,-94.27 -3747.05,89.64z"/>
   <path class="fil0" d="M87882.01 69436.94c-1355.93,223.5 -1188.89,1426.6 -1183.14,2723.14 21.33,4819.12 -556.56,4895.65 2866.2,4899.2 964.45,1.01 2992.29,101.24 3838.84,-55.97 1260.61,-234.13 1086.98,-1460.27 1088.17,-2722.17 4.11,-4393.21 575.31,-4899.9 -2805.91,-4882.65 -1027.36,5.23 -2896.07,-111.24 -3804.17,38.44z"/>
   <path class="fil1" d="M72810.64 29992.61c-1225.9,331.39 -989.89,1528.85 -992.16,2881.22 -1.36,798.21 -105.74,3196.97 113.37,3806.15 382.27,1062.87 1900.6,840.17 3062.31,839.55 4553.97,-2.47 4659.26,449.92 4655.91,-2985.7 -4.53,-4637.09 413.08,-4622.21 -3088.16,-4619.21 -844.91,0.7 -3086.56,-101.69 -3751.26,78z"/>
   <path class="fil1" d="M91212.8 20100.95c-1355.51,246.57 -1165.5,1277.96 -1166.79,2628.56 -4.39,4541.22 -553.46,4927.05 2839.05,4922.06 977.83,-1.43 2992.33,97.55 3855.33,-58.24 1276.71,-230.5 1159.68,-1360.42 1157,-2650.51 -9.55,-4582.79 494.95,-4855.88 -2891.26,-4867.56 -878.44,-3.03 -3077.08,-104.59 -3793.33,25.68z"/>
   <path class="fil1" d="M94226.84 39869.99c-1408.76,303.76 -1184.32,1374.36 -1180.04,2779.29 14.53,4753.25 -415.14,4751.54 2973.79,4752.76 4582.17,1.64 4874.32,548.37 4866.69,-2816.09 -10.52,-4629.11 477,-4742.72 -2930.05,-4758.13 -815.64,-3.69 -3089.63,-96.01 -3730.39,42.17z"/>
   <path class="fil1" d="M22561.57 10269.75c-1273.68,361.12 -1015.33,1436.05 -1014.25,2868.75 3.59,4672.22 -416.74,4648.45 3094.02,4639.5 4539.16,-11.54 4740.28,460.97 4738.72,-2979.5 -2.06,-4501.38 373.74,-4615 -3078.72,-4618.27 -834.77,-0.8 -3098.69,-92.21 -3739.76,89.53z"/>
   <path class="fil1" d="M122229.15 49722.9c-1180,362.51 -968.42,1595.91 -967.06,2886.28 4.91,4650.68 -365.86,4523.27 3070.39,4530.07 4649.53,9.24 4704.18,380.15 4720.21,-2962.32 22.1,-4597.57 318.25,-4543.48 -3060.21,-4543.41 -795.25,0.03 -3176.06,-91.06 -3763.32,89.39z"/>
   <path class="fil1" d="M22622.28 79512.02c-1219.28,352.3 -979.65,1557.22 -975.22,2792.39 16.34,4537.42 -483.38,4633.75 2902.06,4641.9 4760.29,11.5 4822.43,455.08 4816.5,-2889.69 -7.98,-4509.43 418,-4638.17 -2972.08,-4637.68 -878.58,0.14 -3081.4,-106.22 -3771.27,93.09z"/>
   <path class="fil1" d="M22551.84 49732.73c-1205.65,338.82 -949.92,1568.44 -951.73,2876.45 -1.08,774.59 -96.81,3093.36 93.75,3679.23 355.68,1093.61 1709.2,863.45 2947.47,860.77 4632.39,-10.11 4667.86,409.04 4663.3,-2972.25 -6.2,-4561.95 360.46,-4522.4 -3003.3,-4531.04 -827.38,-2.13 -3107.86,-93.47 -3749.49,86.85z"/>
   <path class="fil1" d="M140563.43 7563.72l0 -7346.57c-1077.51,-273.96 -4021.25,-126.3 -5352.81,-131.46 -2307.97,-8.99 -1815.29,1712.17 -1821.28,3738.47 -7,2361.29 -466.33,3891.43 1638.25,3901.09 1237.09,5.65 4553.1,147.63 5535.85,-161.53z"/>
   <path class="fil1" d="M103887.79 110.02c-1970.09,423.15 -3548.96,2248.79 -3009.05,4770.81 422.98,1975.7 2443.47,3438.13 4955.73,2856.79 1974.07,-456.82 3476.78,-2294.69 2936.57,-4775.73 -428.07,-1965.77 -2446.29,-3375.33 -4883.24,-2851.88z"/>
   <path class="fil0" d="M104302.13 20002.22c-5083.18,449.64 -4542.93,8412.44 1114.17,7666.81 4070.04,-536.45 4297.58,-5355.88 1964.24,-6894.21 -986.2,-650.17 -1666.06,-897.54 -3078.41,-772.6z"/>
   <path class="fil0" d="M62139.75 127.83c-2297.06,381.61 -3705.75,2278.66 -3311.24,4539.41 877.36,5027.59 8706.57,3957.06 7878.21,-1415.38 -307.49,-1994.31 -2252.28,-3508.57 -4566.97,-3124.03z"/>
   <path class="fil0" d="M15044.37 272.22c-4879.65,718.58 -4156.26,8467.61 1450.89,7649.18 4830.55,-705.09 4106.22,-8467.54 -1450.89,-7649.18z"/>
   <path class="fil0" d="M132945.44 10074.91c-5062.41,781.59 -4093.39,8577.31 1339.48,7656.22 2000.83,-339.23 3615.28,-2168.15 3187.56,-4544.15 -360.07,-2000.17 -2174.18,-3475.32 -4527.03,-3112.07z"/>
   <path class="fil0" d="M130313.5 79394.12c-2031.36,256.92 -3714.67,2139.99 -3278.59,4540.76 136.72,752.63 456.12,1421.51 953.47,1908.62 255.91,250.64 190.84,280.37 517.77,495.99 1545.27,1019.03 3930.99,966.12 5099.7,-202.27 3002.96,-3002.08 549.24,-7228.99 -3292.35,-6743.1z"/>
   <path class="fil1" d="M131907.6 29986.9c-4919.59,1151.14 -3332.26,8743.93 1931.27,7500.4 2175.26,-513.9 3378.5,-2692.4 2868.57,-4721.12 -469.47,-1867.6 -2393.67,-3342.33 -4799.84,-2779.29z"/>
   <path class="fil0" d="M85420.04 29978.74c-2230.5,582.45 -3304.76,2653.48 -2755.45,4828.56 1165.22,4613.78 8885.04,3150.09 7594.67,-2064.71 -254.3,-1027.81 -958.28,-1856.86 -1617.79,-2263.99 -884.85,-546.21 -2040.67,-808.22 -3221.43,-499.86z"/>
   <path class="fil0" d="M57694.06 69468.03c-4812.25,832.09 -3637.62,8660.05 1690.31,7549.61 3443.64,-717.71 4100.46,-5160.51 1458.07,-6936.42 -964.62,-648.32 -1810.17,-844.6 -3148.39,-613.19z"/>
   <path class="fil1" d="M4868.25 59464.46c-2022.44,221.09 -3629.43,1998.78 -3390.91,4306.5 224.02,2167.56 2020.45,3612.49 4438.83,3312.95 4893.8,-606.15 4248.82,-8198.46 -1047.92,-7619.45z"/>
   <path class="fil0" d="M35246.21 10144.92c-2322.57,406.7 -3522.71,2509.09 -3169.09,4527.03 91.27,520.77 264.72,994.81 506.03,1407.33 201.47,344.43 630.79,799.22 928.62,1007.32 2712.34,1895.17 6887.91,-65.8 6238.57,-3836.72 -332.82,-1932.66 -2230.88,-3503.02 -4504.14,-3104.96z"/>
   <path class="fil1" d="M4314.17 20177.76c-4680.17,848.4 -4044.15,8417.39 1428.83,7548.11 5066.94,-804.8 3784.72,-8493.19 -1428.83,-7548.11z"/>
   <path class="fil0" d="M63541.16 59372.84c-2931.93,184.95 -4341.7,3477.27 -3020.28,5774.47 2022.16,3515.4 7796.25,1899.21 7262.65,-2388.61 -256.57,-2061.72 -1949.99,-3530.42 -4242.38,-3385.86z"/>
   <path class="fil0" d="M35367.63 79414.41c-2237.15,394.19 -3443.26,2548.99 -3105.42,4470.82 888.02,5051.88 8681.38,3605.24 7653.43,-1457.86 -422.7,-2081.82 -2395.06,-3392.34 -4548.01,-3012.96z"/>
   <path class="fil1" d="M16152.05 39833.99c-4851.67,662.61 -4109.63,8493.81 1351.74,7553.41 4899.55,-843.66 3798.73,-8256.86 -1351.74,-7553.41z"/>
   <path class="fil1" d="M82355.5 10137.39c-4804.72,762.95 -4073.25,8330.09 1366.73,7571.36 1967.55,-274.41 3507.45,-2140.23 3138.28,-4441.93 -309.68,-1930.64 -2180.66,-3498.53 -4505.01,-3129.43z"/>
   <path class="fil1" d="M110406.15 59483.98c-4887.35,1126.12 -3428.44,8508.21 1714.71,7474.26 5006.51,-1006.45 3352.85,-8641.96 -1714.71,-7474.26z"/>
   <path class="fil0" d="M15448.98 69461.86c-2796.12,449.64 -3995.95,3560.56 -2589.14,5902.13 1070.33,1781.48 3626.81,2259.14 5300.02,1193.59 3513.34,-2237.43 1597.02,-7788.48 -2710.87,-7095.72z"/>
   <path class="fil0" d="M35222.79 49661.84c-5170.62,1009.27 -3651.28,8534.27 1434.16,7490.43 5015.5,-1029.45 3412.62,-8436.48 -1434.16,-7490.43z"/>
   <path class="fil1" d="M100390.97 69466.53c-4901.75,951.97 -3797.02,8387 1483.16,7518.94 1904.47,-313.1 3436.32,-2201.5 3036.8,-4471.52 -337.77,-1919.32 -2207.88,-3496.47 -4519.96,-3047.42z"/>
   <path class="fil1" d="M38936.83 29978.26c-4794.37,966.26 -3830.72,8435.02 1592.04,7523.89 1865.96,-313.48 3373.9,-2263.08 2925.13,-4528.6 -365.89,-1847.04 -2228.96,-3456.46 -4517.17,-2995.29z"/>
   <path class="fil1" d="M62113.27 20121.55c-4943.81,802.5 -3915.79,8322.8 1301,7515.56 1949.95,-301.73 3517.94,-2045.93 3138.42,-4404.33 -314.52,-1954.59 -2104.62,-3490.23 -4439.42,-3111.24z"/>
   <path class="fil1" d="M62423.16 39820.68c-4764.54,612.46 -4210.94,8229.4 1119.36,7586.06 3625.04,-437.48 4266.14,-4918.44 1847.73,-6773.04 -704.36,-540.15 -1797.2,-963.4 -2967.09,-813.03z"/>
   <path class="fil0" d="M106698.24 39827.37c-4691.98,756.6 -3950.22,8430 1439.64,7550.8 2127.16,-347.01 3352.61,-2427.33 3019.47,-4452.73 -316.41,-1923.71 -2175.82,-3466.26 -4459.11,-3098.06z"/>
   <path class="fil0" d="M89877.79 49637.03c-4824.9,861.78 -3950.96,8342.14 1502.4,7445.13 1883.6,-309.82 3438.06,-2213.59 2976.09,-4469.95 -381.86,-1865.12 -2204.95,-3381.26 -4478.49,-2975.18z"/>
   <path class="fil0" d="M134789.45 49636.57c-774.69,128.49 -1411.27,429.64 -1877.88,945.88 -836.2,925.21 -1467.2,1902.07 -1138.74,3556.35 945.39,4761.02 8374.35,3577.71 7478.86,-1512.82 -342.96,-1949.64 -2159.33,-3371.36 -4462.25,-2989.4z"/>
   <path class="fil1" d="M79410.61 49705.54c-4744.92,959.05 -3630.3,8335.31 1619.71,7365.22 4682.43,-865.2 3452.53,-8390.45 -1619.71,-7365.22z"/>
   <path class="fil1" d="M81189.76 79508.4c-4684.87,1148.95 -3256.74,8405.47 1883.7,7357.2 1789.5,-364.92 3285.21,-2295.04 2712.23,-4578.61 -458.77,-1828.46 -2198.29,-3366.58 -4595.93,-2778.59z"/>
  </g>
 </g>
</svg>
