<svg version="1.2" xmlns="http://www.w3.org/2000/svg" viewBox="0 0 5410 1693" width="5410" height="1693">
	<style>
		.s0 { fill: #d1292f } 
		.s1 { fill: #f9a536 } 
		.s2 { fill: #020407 } 
		.s3 { fill: #000001 } 
		.s4 { fill: #ffffff } 
		.s5 { fill: #fefefe } 
	</style>
	<g id="_Artboards_">
	</g>
	<g id="Capa 1">
		<g id="&lt;Group&gt;">
			<path id="Pan
Comido
" class="s0" aria-label="Pan
Comido"  d="m1933.6 768.3q-34.6 0-50.1-10.2-14.7-10.4-19-26.6-2.6-17.8-2.6-36.1v-518.8q0-18.1 3.6-34 3.8-17.1 19-27.5 15.2-10.5 50.1-10.5h195.2q39.2 0 79.5 15.2 41.1 13.8 75.1 43.7 35.3 29.2 56 73.1 21.9 43.5 21.9 102.6 0 58.4-21.9 102.6-20.7 43-56 72.2-34.2 29-75.1 43.7-40.6 14.2-80.5 14.2h-122.3v124.5q0 18.2-4.2 35.1-2.9 16.2-18.1 26.6-14.9 10.2-50.6 10.2zm72.9-519.1v178.1h123.3q20.9 0 40.6-8.3 20.9-9.7 34.2-29.4 14-20 14-51.6 0-26.6-12.1-46.3-10.9-20.2-31.4-31.3-19.7-11.2-46.3-11.2zm805 518.2q-35.4 0-52.3-12.1-16.6-12.6-16.4-30.7l10-15.9q-6.2 9.5-22.1 23.8-15.9 13.3-42.7 24.7-25.2 10.4-62.7 10.4-43.7 0-83.6-19-38.9-19-70.3-52.2-29.7-33.8-47.5-76-17.5-43.2-17.5-91 0-46.5 17.5-88.5 17.8-42.3 48.5-75.1 31.3-33.2 70.3-52.2 39.1-19 82.6-19 35.4 0 59.8 10.4 25 9.5 40.9 23.8 16.8 12.8 25.4 25.1l-7.8-13.5q-0.8-22.5 15.6-34.4 17.4-12.1 53.2-12.1 34.4 0 48.5 11.1 14.9 9.8 18 26.6 3.8 16.9 3.8 35.9v327.9q0 18.5-3.8 36.1-3.1 15.9-18 26.6-14.3 9.3-49.4 9.3zm-165.8-141.1q25 0 45.1-12.6 20.5-13.3 32.3-34.2 12.6-22.5 12.6-48.9 0-27.8-12.6-48.9-12.3-21.6-33.2-34.2-20.7-12.8-46.1-12.8-27.3 0-48.9 13.8-21.4 12.3-34.2 34.1-12.3 21.9-12.3 49.2 0 26.1 12.3 47.7 13.5 21.2 35.2 34.2 22.5 12.6 49.8 12.6zm383 141.8q-34.4 0-49.9-10-14.5-10.7-18-26.6-2.6-17.1-2.6-35.4v-334.1q0-18 2.6-33.2 4.3-15.9 19-24.7 15.4-10.2 49.8-10.2 30.9 0 45.2 8.3 14.4 7.3 18 19 5 11.1 4.8 21.8 0.2 9.5 1.6 13.3l-5.7 18.3q2.4-14.7 14.5-28.7 13.3-14.7 32.3-26.6 19.5-11.9 41.8-18.1 22.3-7.8 44.2-7.8 45.8 0 81.2 17.3 36.1 16.7 59.8 48.5 25.4 30.4 38 73.1 13.1 41.6 13.1 92.1v172.7q0 18.3-3.6 35.4-3.3 15.9-18 26.6-14.5 9-49.9 9-35.4 0-50.8-10-14.7-10.7-19-26.6-2.6-17.1-2.6-35.4v-171.9q0-28-10.7-47.2-9-20.7-28.5-31.4-17.8-10.9-45.8-10.9-27.1 0-47.3 11.9-19.9 10.4-31.3 30.4-10.5 19.9-10.5 47.2v172.9q0 18.3-3.8 35.4-3.1 15.9-18 26.6-14.5 9-49.9 9zm-846.2 722.8q-41.8 0-89.1-12.1-45.8-13.8-91.1-39.9-44.2-27.3-80.8-68.4-35.8-41.3-57.9-96.9-20.9-55.8-20.9-126.8 0-68.6 20.9-122 22.1-54.4 57.9-94.1 35.9-40.1 79.8-65.5 45.6-26.1 92.1-38.9 48-12.9 91.2-13.1 48.2 0 83.6 11.2 36.8 11.1 58.9 23.7 23.3 11.9 29.7 16.2 17.1 10.9 32 24.7 15.5 12.8 15.9 33.9 0.5 11.6-4.5 23-4 11-12.5 22.8-15.2 21.6-29.3 32.3-13.7 9.3-27.5 9.3-11.4 0-21.8-5.5-10-5.9-24.7-15.4-6.5-4.5-19-11.2-12.6-7.3-34.2-13.3-20.5-6.1-52.5-6.1-32.8 0-67.2 11.8-33.5 11.7-61.8 36.1-28.2 23.1-45.5 59.9-16.9 36.1-16.9 85 0 49.6 16.9 85.9 18 36.1 45.5 59.9 29 23.7 62.7 36.1 34.2 11.1 66.3 11.1 28.5 0 48.7-4.5 20.4-6.1 35.1-14.2 15.4-8.3 25.4-14.7 10.5-7.2 21.2-12.9 11.1-5.7 22.5-5.7 13.8 0 26.8 11.4 14.1 9.8 28.5 32.1 8.6 13 12.4 24.9 5.2 11.7 4.7 22.6-0.4 20.4-16.1 33.5-14.7 12.8-31.8 23-7.2 4-29 16.9-21.6 12.5-57.9 23.7-35.9 10.2-86.7 10.2zm512.2 0.5q-44.7 0-89.1-17.3-43.4-18.1-79.8-50.4-35.8-32.5-57.9-76.9-20.4-45.6-20.4-100.2 0-51.3 18.5-95.5 20.2-44.9 54.1-78.8 34-34 77.9-53.2 44.4-19.5 94.8-19.5 68.6 0 123.7 32.8 56 32.7 89.3 89.3 33.2 54.8 33.2 123.9 0 57.2-21.8 103.1-21.2 44.9-57 76.9-35.2 32.1-78.9 49.4-43 16.4-86.6 16.4zm-1.9-143.2q22.8 0 45.8-10.9 24.4-11.9 39.9-34.2 16.8-24 16.8-58.7 0-30.6-14-53.4-12.3-22.8-36.1-35.1-23-13.1-53.4-13.1-28 0-51 14-22.4 12.6-36.1 36.1-13.6 22.8-13.6 52.5 0 34.2 15.5 57.7 16.1 22.5 38.9 34.2 24.2 10.9 47.3 10.9zm374.5 135.6q-34.5 0-49.4-9.7-15-11-18.1-26.6-3.1-17.4-3.1-35.7v-332.6q0-18.8 3.1-34.5 3.8-16.1 18.1-25.6 15.9-10.2 51-10.2 35.4 0 50.6 14 16.9 13.8 16.9 44.9l-12.1 10.6q2.1-4.9 11.4-15.6 9.2-11.9 23.7-23.8 16.2-13.5 36.1-21.8 20.7-9.5 44.9-9.5 30.6 0 55.8 9.5 25.4 8.5 45.6 26.6 20.9 17.5 35.8 43.4 13.3-18.7 31.6-36.8 20-18.3 45.6-30.4 26.1-12.3 58.4-12.3 55.6 0 93.6 28.5 38.9 27.5 57.9 80.7 20.7 51.8 20.7 125.6v169.6q0 18.3-3.6 35.4-3.3 15.9-19 26.6-14.2 9.7-49.6 9.7-34.7 0-50.1-10.7-14.7-10.7-18.1-26.6-2.8-17.1-2.8-35.4v-169.5q0-29.2-7.6-48.7-6.2-20.9-20-31.3-13-11.2-33.9-11.2-22.1 0-38.2 10.2-14.5 10-22.8 30.4-7.2 19.9-7.2 51.3v170q0 18.8-5.2 36.1-3.6 16.2-19.9 26.6-15.2 9.5-49.9 8.5-33.5-0.4-48-10.4-14.5-11.6-18-27.5-2.2-16.9-2.2-34.5v-169.5q0-29.2-7.3-49.6-5.7-20.7-20-30.4-12.5-11.2-34.2-11.2-24.2 0-39.8 13.1-14.3 11.4-21.9 32.2-6.4 20.2-6.4 45.9v171.2q0 18.3-4 35.6-2.9 15.7-18.1 25.7-14.9 9.7-50.3 9.7zm769.1 0.2q-34.4 0-49.8-9.9-14.7-10.7-18.1-26.6-2.8-17.1-2.8-35.4v-331.5q0-18.3 2.8-34 4.1-16.6 19-26.6 15.2-10.4 49.9-10.4 34.7 0 48.9 10.4 15 10.2 18.1 27.6 3.8 15.6 3.8 34.9v330.5q0 18.3-3.8 35.4-3.1 15.9-18.1 26.6-14.5 9-49.9 9zm0-543.5q-35.3 0-50.8-9.8-15.4-11.4-19-28.4-3.1-17.1-3.1-36.1 0-19.7 3.1-36.1 4.3-16.7 19-26.6 16.4-10.2 51.8-10.2 35.4 0 49.9 11.1 15.6 10 19 27.6 4 16.3 4 35.6 0 18.7-4 36.6-3.4 16.1-19 26.5-14.5 9.8-50.9 9.8zm357.6 542.1q-43 0-82.4-18-39-19.3-69.4-51.3-30.1-33.8-48.4-77-16.9-43.4-16.9-91.9 0-46.8 16.9-88.5 18.3-43 48.4-75.1 31.1-33.5 70.3-52.2 39.2-19.3 81.5-19.3 45.8 0 80 19.3 35.1 18 57.9 51.3 24.2 31.8 36.1 75 12.4 41.8 13.1 88.8 0.7 47.7-11.2 90.7-11.6 42.5-35.1 76-23.5 33.5-58.9 53.2-34.7 19-81.9 19zm19.2-140.8q25.4 0 45.6-12.1 21.1-13.3 33.2-34.2 13.1-22.3 13.1-48.9 0-27.6-13.1-49-11.4-21.3-32.3-33.2-20.6-13.5-47.2-13.5-25.9 0-47.7 12.6-20.7 12.1-33.3 34.1-11.9 21.4-11.9 49 0 26.6 11.9 48.9 13.3 20.9 34.2 34.2 22.3 12.1 47.5 12.1zm165.7 141.5q-32.3 0-48.9-10.2-14.9-10.2-19.9-32.5v-575.2q0-18.5 1.9-34.4 2.8-17.1 17.1-26.6 14.5-11.1 48.9-11.1 35.4 0 49.9 10.2 14.7 9.7 18 26.6 3.8 15.4 3.8 34.4v546.6q0 18.3-3.8 35.4-3.1 16.2-18 26.6-14.3 10.2-49 10.2zm374.8 8.1q-44.7 0-89.1-17.3-43.4-18.1-79.8-50.4-35.8-32.5-57.9-76.9-20.4-45.6-20.4-100.2 0-51.3 18.5-95.5 20.2-44.9 54.1-78.8 34-34 77.9-53.2 44.4-19.5 94.8-19.5 68.6 0 123.7 32.8 56 32.7 89.3 89.3 33.2 54.8 33.2 123.9 0 57.2-21.8 103.1-21.2 44.9-57 76.9-35.2 32.1-78.9 49.4-43 16.4-86.6 16.4zm-1.9-143.2q22.8 0 45.8-10.9 24.4-11.9 39.9-34.2 16.8-24 16.8-58.7 0-30.6-14-53.4-12.3-22.8-36.1-35.1-23-13.1-53.4-13.1-28 0-51 14-22.4 12.6-36.1 36.1-13.6 22.8-13.6 52.5 0 34.2 15.5 57.7 16.1 22.5 38.9 34.2 24.2 10.9 47.3 10.9z"/>
			<g id="&lt;Group&gt;">
				<path id="&lt;Path&gt;" class="s1" d="m512.78 486.07h-262.35c-28.4 0-51.43-23.03-51.43-51.43v-280.55c0-28.41 23.03-51.44 51.43-51.44h262.35c28.4 0 51.43 23.03 51.43 51.44v280.55c0 28.4-23.03 51.43-51.43 51.43z"/>
			</g>
			<g id="&lt;Group&gt;">
				<path id="&lt;Path&gt;" class="s1" d="m513.13 1490.2h-262.34c-28.41 0-51.44-23.03-51.44-51.44v-280.55c0-28.4 23.03-51.43 51.44-51.43h262.34c28.41 0 51.44 23.03 51.44 51.43v280.55c0 28.41-23.03 51.44-51.44 51.44z"/>
			</g>
			<g id="&lt;Group&gt;">
				<path id="&lt;Path&gt;" class="s1" d="m1494.37 1490.2h-757.4c-28.41 0-51.43-23.03-51.43-51.44v-280.55c0-28.4 23.02-51.43 51.43-51.43h757.4c28.41 0 51.44 23.03 51.44 51.43v280.55c0 28.41-23.03 51.44-51.44 51.44z"/>
			</g>
			<g id="&lt;Group&gt;">
				<path id="&lt;Path&gt;" fill-rule="evenodd" class="s1" d="m879.21 491.22c-107.39 0-194.19-86.8-194.19-194.18 0-107.39 86.8-194.19 194.19-194.19 107.38 0 194.18 86.8 194.18 194.19 0 107.38-86.8 194.18-194.18 194.18z"/>
			</g>
			<g id="&lt;Group&gt;">
				<path id="&lt;Path&gt;" fill-rule="evenodd" class="s1" d="m1351.27 491.22c-107.39 0-194.19-86.8-194.19-194.18 0-107.39 86.8-194.19 194.19-194.19 107.38 0 194.18 86.8 194.18 194.19 0 107.38-86.8 194.18-194.18 194.18z"/>
			</g>
			<g id="&lt;Group&gt;">
				<path id="&lt;Path&gt;" class="s1" d="m512.78 987.74h-262.35c-28.4 0-51.43-23.03-51.43-51.43v-280.55c0-28.41 23.03-51.44 51.43-51.44h262.35c28.4 0 51.43 23.03 51.43 51.44v280.55c0 28.4-23.03 51.43-51.43 51.43z"/>
			</g>
			<g id="&lt;Group&gt;">
				<path id="&lt;Path&gt;" fill-rule="evenodd" class="s1" d="m879.21 992.89c-107.39 0-194.19-86.8-194.19-194.18 0-107.39 86.8-194.19 194.19-194.19 107.38 0 194.18 86.8 194.18 194.19 0 107.38-86.8 194.18-194.18 194.18z"/>
			</g>
			<g id="&lt;Group&gt;">
				<path id="&lt;Path&gt;" fill-rule="evenodd" class="s1" d="m1351.27 992.89c-107.39 0-194.19-86.8-194.19-194.18 0-107.39 86.8-194.19 194.19-194.19 107.38 0 194.18 86.8 194.18 194.19 0 107.38-86.8 194.18-194.18 194.18z"/>
			</g>
		</g>
		<g id="&lt;Group&gt;" style="display: none">
			<path id="Pan
Comido
" class="s2" aria-label="Pan
Comido"  d="m2481.4 429.8q-11.5 0-16.7-3.4-4.8-3.5-6.3-8.9-0.8-5.9-0.8-11.9v-172.2q0-5.9 1.2-11.2 1.2-5.7 6.3-9.2 5-3.4 16.6-3.4h64.7q13 0 26.4 5 13.7 4.6 24.9 14.5 11.8 9.7 18.6 24.3 7.3 14.4 7.3 34 0 19.4-7.3 34-6.8 14.3-18.6 24-11.3 9.6-24.9 14.5-13.4 4.7-26.7 4.7h-40.6v41.3q0 6.1-1.4 11.6-0.9 5.4-6 8.9-4.9 3.4-16.7 3.4zm24.1-172.2v59h40.9q7 0 13.5-2.7 6.9-3.3 11.3-9.8 4.7-6.6 4.7-17.1 0-8.8-4-15.3-3.6-6.7-10.4-10.4-6.6-3.7-15.4-3.7zm267 171.8q-11.8 0-17.4-4-5.5-4.2-5.4-10.1l3.3-5.3q-2.1 3.1-7.3 7.9-5.3 4.4-14.2 8.2-8.4 3.4-20.8 3.4-14.5 0-27.7-6.3-13-6.3-23.4-17.3-9.8-11.2-15.7-25.2-5.8-14.4-5.8-30.2 0-15.4 5.8-29.4 5.9-14 16.1-24.9 10.4-11 23.3-17.3 13-6.3 27.4-6.3 11.7 0 19.8 3.5 8.3 3.1 13.6 7.8 5.6 4.3 8.4 8.4l-2.6-4.5q-0.2-7.5 5.2-11.4 5.8-4 17.7-4 11.4 0 16 3.7 5 3.2 6 8.8 1.3 5.6 1.3 11.9v108.8q0 6.1-1.3 11.9-1 5.3-6 8.9-4.7 3-16.3 3zm-55-46.8q8.2 0 14.9-4.1 6.8-4.4 10.7-11.4 4.2-7.5 4.2-16.2 0-9.2-4.2-16.2-4-7.2-11-11.4-6.8-4.2-15.3-4.2-9 0-16.2 4.5-7.1 4.1-11.3 11.4-4.1 7.2-4.1 16.3 0 8.7 4.1 15.8 4.5 7 11.6 11.4 7.5 4.1 16.6 4.1zm126.9 47.1q-11.5 0-16.6-3.3-4.8-3.6-6-8.9-0.8-5.6-0.8-11.7v-110.8q0-6 0.8-11.1 1.5-5.2 6.3-8.1 5.2-3.4 16.6-3.4 10.2 0 14.9 2.7 4.9 2.5 6 6.3 1.7 3.7 1.6 7.3 0.1 3.1 0.6 4.4l-1.9 6q0.8-4.8 4.8-9.5 4.4-4.9 10.7-8.8 6.4-3.9 13.9-6 7.4-2.6 14.6-2.6 15.2 0 26.9 5.8 12 5.5 19.9 16 8.4 10.1 12.6 24.3 4.3 13.8 4.3 30.6v57.2q0 6.1-1.1 11.8-1.1 5.2-6 8.8-4.8 3-16.6 3-11.7 0-16.8-3.3-4.9-3.6-6.3-8.9-0.9-5.6-0.9-11.7v-57q0-9.3-3.5-15.7-3-6.9-9.5-10.4-5.9-3.6-15.2-3.6-9 0-15.7 3.9-6.6 3.5-10.4 10.1-3.4 6.6-3.4 15.7v57.3q0 6.1-1.3 11.8-1 5.2-6 8.8-4.8 3-16.5 3zm-280.5 239.6q-13.9 0-29.6-4-15.2-4.6-30.2-13.3-14.7-9-26.8-22.7-11.9-13.7-19.2-32.1-6.9-18.5-6.9-42.1 0-22.7 6.9-40.5 7.3-18 19.2-31.2 11.9-13.3 26.5-21.7 15.1-8.7 30.5-12.9 16-4.3 30.3-4.3 16 0 27.7 3.7 12.2 3.7 19.6 7.8 7.7 4 9.8 5.4 5.7 3.6 10.6 8.2 5.2 4.2 5.3 11.2 0.2 3.9-1.5 7.7-1.3 3.6-4.1 7.5-5.1 7.2-9.7 10.8-4.6 3-9.2 3-3.8 0-7.2-1.8-3.3-1.9-8.2-5.1-2.1-1.5-6.3-3.7-4.2-2.4-11.4-4.4-6.7-2.1-17.4-2.1-10.8 0-22.3 4-11.1 3.8-20.4 12-9.4 7.6-15.2 19.8-5.6 12-5.6 28.2 0 16.5 5.6 28.5 6 12 15.2 19.9 9.6 7.9 20.8 11.9 11.3 3.8 21.9 3.8 9.5 0 16.2-1.5 6.8-2.1 11.6-4.8 5.2-2.7 8.5-4.9 3.4-2.3 7-4.2 3.7-1.9 7.5-1.9 4.5 0 8.9 3.8 4.6 3.2 9.4 10.6 2.9 4.3 4.1 8.3 1.7 3.8 1.6 7.5-0.2 6.7-5.4 11.1-4.9 4.2-10.5 7.6-2.4 1.4-9.6 5.6-7.2 4.2-19.3 7.9-11.9 3.4-28.7 3.4zm170.5 0.1q-14.8 0-29.5-5.7-14.4-6-26.5-16.7-11.9-10.8-19.2-25.5-6.8-15.2-6.8-33.3 0-17 6.2-31.7 6.7-14.8 17.9-26.1 11.3-11.3 25.9-17.6 14.7-6.5 31.4-6.5 22.8 0 41 10.9 18.6 10.8 29.7 29.6 11 18.2 11 41.1 0 19-7.3 34.2-7 14.9-18.9 25.5-11.6 10.6-26.1 16.4-14.3 5.4-28.8 5.4zm-0.6-47.5q7.6 0 15.2-3.6 8.1-3.9 13.2-11.3 5.6-8 5.6-19.5 0-10.2-4.6-17.7-4.1-7.6-12-11.7-7.6-4.3-17.7-4.3-9.3 0-16.9 4.6-7.5 4.2-12 12-4.5 7.6-4.5 17.4 0 11.4 5.1 19.2 5.4 7.4 12.9 11.3 8.1 3.6 15.7 3.6zm124.1 45q-11.4 0-16.4-3.2-5-3.6-6-8.8-1-5.8-1-11.9v-110.3q0-6.2 1-11.4 1.3-5.4 6-8.5 5.3-3.4 16.9-3.4 11.8 0 16.8 4.6 5.6 4.6 5.6 14.9l-4 3.5q0.7-1.6 3.8-5.2 3.1-3.9 7.9-7.8 5.3-4.5 11.9-7.3 6.9-3.1 14.9-3.1 10.2 0 18.5 3.1 8.5 2.9 15.2 8.8 6.9 5.9 11.9 14.5 4.4-6.3 10.4-12.3 6.6-6 15.2-10 8.6-4.1 19.3-4.1 18.5 0 31.1 9.4 12.9 9.2 19.2 26.8 6.8 17.2 6.8 41.7v56.2q0 6.1-1.1 11.8-1.1 5.2-6.3 8.8-4.8 3.2-16.5 3.2-11.5 0-16.6-3.5-4.9-3.6-6-8.9-1-5.6-1-11.7v-56.2q0-9.7-2.5-16.2-2-6.9-6.6-10.4-4.3-3.7-11.3-3.7-7.3 0-12.6 3.4-4.8 3.3-7.6 10.1-2.4 6.6-2.4 17v56.4q0 6.2-1.7 12-1.2 5.3-6.6 8.8-5.1 3.2-16.6 2.8-11.1-0.1-15.9-3.4-4.8-3.9-6-9.2-0.7-5.6-0.7-11.4v-56.2q0-9.7-2.4-16.5-1.9-6.9-6.6-10.1-4.2-3.7-11.4-3.7-8 0-13.2 4.3-4.7 3.8-7.3 10.8-2.1 6.7-2.1 15.2v56.8q0 6-1.3 11.8-1 5.2-6 8.5-5 3.2-16.7 3.2zm255 0.1q-11.4 0-16.5-3.3-4.9-3.6-6-8.8-0.9-5.7-0.9-11.8v-109.9q0-6.1 0.9-11.3 1.3-5.5 6.3-8.8 5.1-3.5 16.6-3.5 11.5 0 16.2 3.5 4.9 3.4 6 9.1 1.2 5.2 1.2 11.6v109.6q0 6.1-1.2 11.8-1.1 5.3-6 8.8-4.8 3-16.6 3zm0-180.3q-11.7 0-16.8-3.3-5.1-3.7-6.3-9.4-1-5.7-1-12 0-6.5 1-12 1.4-5.5 6.3-8.8 5.4-3.4 17.2-3.4 11.7 0 16.5 3.7 5.2 3.3 6.3 9.2 1.3 5.4 1.3 11.8 0 6.2-1.3 12.1-1.1 5.4-6.3 8.8-4.8 3.3-16.9 3.3zm118.3 179.8q-14.2 0-27.3-6-12.9-6.3-23-17-10-11.2-16.1-25.5-5.6-14.4-5.6-30.5 0-15.5 5.6-29.4 6.1-14.2 16.1-24.9 10.3-11.1 23.3-17.3 13-6.4 27-6.4 15.2 0 26.6 6.4 11.6 6 19.2 17 8 10.6 12 24.9 4.1 13.9 4.3 29.5 0.3 15.8-3.7 30.1-3.8 14.1-11.6 25.2-7.8 11.1-19.6 17.6-11.5 6.3-27.2 6.3zm6.4-46.7q8.5 0 15.1-4 7.1-4.4 11.1-11.4 4.3-7.4 4.3-16.2 0-9.1-4.3-16.2-3.8-7.1-10.7-11-6.9-4.5-15.7-4.5-8.6 0-15.8 4.1-6.9 4.1-11.1 11.4-3.9 7.1-3.9 16.2 0 8.8 3.9 16.2 4.4 7 11.4 11.4 7.4 4 15.7 4zm55 47q-10.7 0-16.2-3.4-5-3.4-6.6-10.8v-190.8q0-6.2 0.6-11.4 0.9-5.7 5.7-8.9 4.8-3.7 16.2-3.7 11.7 0 16.5 3.4 4.9 3.3 6 8.8 1.3 5.2 1.3 11.5v181.3q0 6.1-1.3 11.7-1 5.4-6 8.9-4.7 3.4-16.2 3.4zm123.8 2.6q-14.8 0-29.5-5.7-14.4-6-26.5-16.7-11.9-10.8-19.2-25.5-6.8-15.2-6.8-33.3 0-17 6.2-31.7 6.7-14.8 17.9-26.1 11.3-11.3 25.9-17.6 14.7-6.5 31.4-6.5 22.8 0 41 10.9 18.6 10.8 29.7 29.6 11 18.2 11 41.1 0 19-7.3 34.2-7 14.9-18.9 25.5-11.6 10.6-26.1 16.4-14.3 5.4-28.8 5.4zm-0.6-47.5q7.6 0 15.2-3.6 8.1-3.9 13.2-11.3 5.6-8 5.6-19.5 0-10.2-4.6-17.7-4.1-7.6-12-11.7-7.6-4.3-17.7-4.3-9.3 0-16.9 4.6-7.5 4.2-12 12-4.5 7.6-4.5 17.4 0 11.4 5.1 19.2 5.4 7.4 12.9 11.3 8.1 3.6 15.7 3.6z"/>
			<g id="&lt;Group&gt;">
				<path id="&lt;Path&gt;" class="s3" d="m2010.04 336.42h-87.03c-9.43 0-17.07-7.64-17.07-17.07v-93.07c0-9.42 7.64-17.06 17.07-17.06h87.03c9.42 0 17.06 7.64 17.06 17.06v93.07c0 9.43-7.64 17.07-17.06 17.07z"/>
			</g>
			<g id="&lt;Group&gt;">
				<path id="&lt;Path&gt;" class="s3" d="m2010.16 669.53h-87.04c-9.42 0-17.06-7.64-17.06-17.06v-93.07c0-9.43 7.64-17.07 17.06-17.07h87.04c9.42 0 17.06 7.64 17.06 17.07v93.07c0 9.42-7.64 17.06-17.06 17.06z"/>
			</g>
			<g id="&lt;Group&gt;">
				<path id="&lt;Path&gt;" class="s3" d="m2335.68 669.53h-251.27c-9.42 0-17.06-7.64-17.06-17.06v-93.07c0-9.43 7.64-17.07 17.06-17.07h251.27c9.42 0 17.06 7.64 17.06 17.07v93.07c0 9.42-7.64 17.06-17.06 17.06z"/>
			</g>
			<g id="&lt;Group&gt;">
				<path id="&lt;Path&gt;" fill-rule="evenodd" class="s3" d="m2131.6 338.12c-35.62 0-64.42-28.79-64.42-64.42 0-35.62 28.8-64.42 64.42-64.42 35.63 0 64.42 28.8 64.42 64.42 0 35.63-28.79 64.42-64.42 64.42z"/>
			</g>
			<g id="&lt;Group&gt;">
				<path id="&lt;Path&gt;" fill-rule="evenodd" class="s3" d="m2288.21 338.12c-35.63 0-64.42-28.79-64.42-64.42 0-35.62 28.79-64.42 64.42-64.42 35.62 0 64.42 28.8 64.42 64.42 0 35.63-28.8 64.42-64.42 64.42z"/>
			</g>
			<g id="&lt;Group&gt;">
				<path id="&lt;Path&gt;" class="s3" d="m2010.04 502.84h-87.03c-9.43 0-17.07-7.64-17.07-17.06v-93.07c0-9.43 7.64-17.07 17.07-17.07h87.03c9.42 0 17.06 7.64 17.06 17.07v93.07c0 9.42-7.64 17.06-17.06 17.06z"/>
			</g>
			<g id="&lt;Group&gt;">
				<path id="&lt;Path&gt;" fill-rule="evenodd" class="s3" d="m2131.6 504.55c-35.62 0-64.42-28.79-64.42-64.42 0-35.62 28.8-64.42 64.42-64.42 35.63 0 64.42 28.8 64.42 64.42 0 35.63-28.79 64.42-64.42 64.42z"/>
			</g>
			<g id="&lt;Group&gt;">
				<path id="&lt;Path&gt;" fill-rule="evenodd" class="s3" d="m2288.21 504.55c-35.63 0-64.42-28.79-64.42-64.42 0-35.62 28.79-64.42 64.42-64.42 35.62 0 64.42 28.8 64.42 64.42 0 35.63-28.8 64.42-64.42 64.42z"/>
			</g>
		</g>
		<g id="&lt;Group&gt;" style="display: none">
			<path id="Pan
Comido
" class="s4" aria-label="Pan
Comido"  d="m4291.4 429.8q-11.5 0-16.7-3.4-4.8-3.5-6.3-8.9-0.8-5.9-0.8-11.9v-172.2q0-5.9 1.2-11.2 1.2-5.7 6.3-9.2 5-3.4 16.6-3.4h64.7q13 0 26.4 5 13.7 4.6 24.9 14.5 11.8 9.7 18.6 24.3 7.3 14.4 7.3 34 0 19.4-7.3 34-6.8 14.3-18.6 24-11.3 9.6-24.9 14.5-13.4 4.7-26.7 4.7h-40.6v41.3q0 6.1-1.4 11.6-0.9 5.4-6 8.9-4.9 3.4-16.7 3.4zm24.1-172.2v59h40.9q7 0 13.5-2.7 6.9-3.3 11.3-9.8 4.7-6.6 4.7-17.1 0-8.8-4-15.3-3.6-6.7-10.4-10.4-6.6-3.7-15.4-3.7zm267 171.8q-11.8 0-17.4-4-5.5-4.2-5.4-10.1l3.3-5.3q-2.1 3.1-7.3 7.9-5.3 4.4-14.2 8.2-8.4 3.4-20.8 3.4-14.5 0-27.7-6.3-13-6.3-23.4-17.3-9.8-11.2-15.7-25.2-5.8-14.4-5.8-30.2 0-15.4 5.8-29.4 5.9-14 16.1-24.9 10.4-11 23.3-17.3 13-6.3 27.4-6.3 11.7 0 19.8 3.5 8.3 3.1 13.6 7.8 5.6 4.3 8.4 8.4l-2.6-4.5q-0.2-7.5 5.2-11.4 5.8-4 17.7-4 11.4 0 16 3.7 5 3.2 6 8.8 1.3 5.6 1.3 11.9v108.8q0 6.1-1.3 11.9-1 5.3-6 8.9-4.7 3-16.3 3zm-55-46.8q8.2 0 14.9-4.1 6.8-4.4 10.7-11.4 4.2-7.5 4.2-16.2 0-9.2-4.2-16.2-4-7.2-11-11.4-6.8-4.2-15.3-4.2-9 0-16.2 4.5-7.1 4.1-11.3 11.4-4.1 7.2-4.1 16.3 0 8.7 4.1 15.8 4.5 7 11.6 11.4 7.5 4.1 16.6 4.1zm126.9 47.1q-11.5 0-16.6-3.3-4.8-3.6-6-8.9-0.8-5.6-0.8-11.7v-110.8q0-6 0.8-11.1 1.5-5.2 6.3-8.1 5.2-3.4 16.6-3.4 10.2 0 14.9 2.7 4.9 2.5 6 6.3 1.7 3.7 1.6 7.3 0.1 3.1 0.6 4.4l-1.9 6q0.8-4.8 4.8-9.5 4.4-4.9 10.7-8.8 6.4-3.9 13.9-6 7.4-2.6 14.6-2.6 15.2 0 26.9 5.8 12 5.5 19.9 16 8.4 10.1 12.6 24.3 4.3 13.8 4.3 30.6v57.2q0 6.1-1.1 11.8-1.1 5.2-6 8.8-4.8 3-16.6 3-11.7 0-16.8-3.3-4.9-3.6-6.3-8.9-0.9-5.6-0.9-11.7v-57q0-9.3-3.5-15.7-3-6.9-9.5-10.4-5.9-3.6-15.2-3.6-9 0-15.7 3.9-6.6 3.5-10.4 10.1-3.4 6.6-3.4 15.7v57.3q0 6.1-1.3 11.8-1 5.2-6 8.8-4.8 3-16.5 3zm-280.5 239.6q-13.9 0-29.6-4-15.2-4.6-30.2-13.3-14.7-9-26.8-22.7-11.9-13.7-19.2-32.1-6.9-18.5-6.9-42.1 0-22.7 6.9-40.5 7.3-18 19.2-31.2 11.9-13.3 26.5-21.7 15.1-8.7 30.5-12.9 16-4.3 30.3-4.3 16 0 27.7 3.7 12.2 3.7 19.6 7.8 7.7 4 9.8 5.4 5.7 3.6 10.6 8.2 5.2 4.2 5.3 11.2 0.2 3.9-1.5 7.7-1.3 3.6-4.1 7.5-5.1 7.2-9.7 10.8-4.6 3-9.2 3-3.8 0-7.2-1.8-3.3-1.9-8.2-5.1-2.1-1.5-6.3-3.7-4.2-2.4-11.4-4.4-6.7-2.1-17.4-2.1-10.8 0-22.3 4-11.1 3.8-20.4 12-9.4 7.6-15.2 19.8-5.6 12-5.6 28.2 0 16.5 5.6 28.5 6 12 15.2 19.9 9.6 7.9 20.8 11.9 11.3 3.8 21.9 3.8 9.5 0 16.2-1.5 6.8-2.1 11.6-4.8 5.2-2.7 8.5-4.9 3.4-2.3 7-4.2 3.7-1.9 7.5-1.9 4.5 0 8.9 3.8 4.6 3.2 9.4 10.6 2.9 4.3 4.1 8.3 1.7 3.8 1.6 7.5-0.2 6.7-5.4 11.1-4.9 4.2-10.5 7.6-2.4 1.4-9.6 5.6-7.2 4.2-19.3 7.9-11.9 3.4-28.7 3.4zm169.5 0.1q-14.8 0-29.5-5.7-14.4-6-26.5-16.7-11.9-10.8-19.2-25.5-6.8-15.2-6.8-33.3 0-17 6.2-31.7 6.7-14.8 17.9-26.1 11.3-11.3 25.9-17.6 14.7-6.5 31.4-6.5 22.8 0 41 10.9 18.6 10.8 29.7 29.6 11 18.2 11 41.1 0 19-7.3 34.2-7 14.9-18.9 25.5-11.6 10.6-26.1 16.4-14.3 5.4-28.8 5.4zm-0.6-47.5q7.6 0 15.2-3.6 8.1-3.9 13.2-11.3 5.6-8 5.6-19.5 0-10.2-4.6-17.7-4.1-7.6-12-11.7-7.6-4.3-17.7-4.3-9.3 0-16.9 4.6-7.5 4.2-12 12-4.5 7.6-4.5 17.4 0 11.4 5.1 19.2 5.4 7.4 12.9 11.3 8.1 3.6 15.7 3.6zm125.1 45q-11.4 0-16.4-3.2-5-3.6-6-8.8-1-5.8-1-11.9v-110.3q0-6.2 1-11.4 1.3-5.4 6-8.5 5.3-3.4 16.9-3.4 11.8 0 16.8 4.6 5.6 4.6 5.6 14.9l-4 3.5q0.7-1.6 3.8-5.2 3.1-3.9 7.9-7.8 5.3-4.5 11.9-7.3 6.9-3.1 14.9-3.1 10.2 0 18.5 3.1 8.5 2.9 15.2 8.8 6.9 5.9 11.9 14.5 4.4-6.3 10.4-12.3 6.6-6 15.2-10 8.6-4.1 19.3-4.1 18.5 0 31.1 9.4 12.9 9.2 19.2 26.8 6.8 17.2 6.8 41.7v56.2q0 6.1-1.1 11.8-1.1 5.2-6.3 8.8-4.8 3.2-16.5 3.2-11.5 0-16.6-3.5-4.9-3.6-6-8.9-1-5.6-1-11.7v-56.2q0-9.7-2.5-16.2-2-6.9-6.6-10.4-4.3-3.7-11.3-3.7-7.3 0-12.6 3.4-4.8 3.3-7.6 10.1-2.4 6.6-2.4 17v56.4q0 6.2-1.7 12-1.2 5.3-6.6 8.8-5.1 3.2-16.6 2.8-11.1-0.1-15.9-3.4-4.8-3.9-6-9.2-0.7-5.6-0.7-11.4v-56.2q0-9.7-2.4-16.5-1.9-6.9-6.6-10.1-4.2-3.7-11.4-3.7-8 0-13.2 4.3-4.7 3.8-7.3 10.8-2.1 6.7-2.1 15.2v56.8q0 6-1.3 11.8-1 5.2-6 8.5-5 3.2-16.7 3.2zm255 0.1q-11.4 0-16.5-3.3-4.9-3.6-6-8.8-0.9-5.7-0.9-11.8v-109.9q0-6.1 0.9-11.3 1.3-5.5 6.3-8.8 5.1-3.5 16.6-3.5 11.5 0 16.2 3.5 4.9 3.4 6 9.1 1.2 5.2 1.2 11.6v109.6q0 6.1-1.2 11.8-1.1 5.3-6 8.8-4.8 3-16.6 3zm0-180.3q-11.7 0-16.8-3.3-5.1-3.7-6.3-9.4-1-5.7-1-12 0-6.5 1-12 1.4-5.5 6.3-8.8 5.4-3.4 17.2-3.4 11.7 0 16.5 3.7 5.2 3.3 6.3 9.2 1.3 5.4 1.3 11.8 0 6.2-1.3 12.1-1.1 5.4-6.3 8.8-4.8 3.3-16.9 3.3zm118.3 179.8q-14.2 0-27.3-6-12.9-6.3-23-17-10-11.2-16.1-25.5-5.6-14.4-5.6-30.5 0-15.5 5.6-29.4 6.1-14.2 16.1-24.9 10.3-11.1 23.3-17.3 13-6.4 27-6.4 15.2 0 26.6 6.4 11.6 6 19.2 17 8 10.6 12 24.9 4.1 13.9 4.3 29.5 0.3 15.8-3.7 30.1-3.8 14.1-11.6 25.2-7.8 11.1-19.6 17.6-11.5 6.3-27.2 6.3zm6.4-46.7q8.5 0 15.1-4 7.1-4.4 11.1-11.4 4.3-7.4 4.3-16.2 0-9.1-4.3-16.2-3.8-7.1-10.7-11-6.9-4.5-15.7-4.5-8.6 0-15.8 4.1-6.9 4.1-11.1 11.4-3.9 7.1-3.9 16.2 0 8.8 3.9 16.2 4.4 7 11.4 11.4 7.4 4 15.7 4zm55 47q-10.7 0-16.2-3.4-5-3.4-6.6-10.8v-190.8q0-6.2 0.6-11.4 0.9-5.7 5.7-8.9 4.8-3.7 16.2-3.7 11.7 0 16.5 3.4 4.9 3.3 6 8.8 1.3 5.2 1.3 11.5v181.3q0 6.1-1.3 11.7-1 5.4-6 8.9-4.7 3.4-16.2 3.4zm123.8 2.6q-14.8 0-29.5-5.7-14.4-6-26.5-16.7-11.9-10.8-19.2-25.5-6.8-15.2-6.8-33.3 0-17 6.2-31.7 6.7-14.8 17.9-26.1 11.3-11.3 25.9-17.6 14.7-6.5 31.4-6.5 22.8 0 41 10.9 18.6 10.8 29.7 29.6 11 18.2 11 41.1 0 19-7.3 34.2-7 14.9-18.9 25.5-11.6 10.6-26.1 16.4-14.3 5.4-28.8 5.4zm-0.6-47.5q7.6 0 15.2-3.6 8.1-3.9 13.2-11.3 5.6-8 5.6-19.5 0-10.2-4.6-17.7-4.1-7.6-12-11.7-7.6-4.3-17.7-4.3-9.3 0-16.9 4.6-7.5 4.2-12 12-4.5 7.6-4.5 17.4 0 11.4 5.1 19.2 5.4 7.4 12.9 11.3 8.1 3.6 15.7 3.6z"/>
			<g id="&lt;Group&gt;">
				<path id="&lt;Path&gt;" class="s5" d="m3819.97 336.42h-87.03c-9.43 0-17.07-7.64-17.07-17.07v-93.07c0-9.42 7.64-17.06 17.07-17.06h87.03c9.42 0 17.06 7.64 17.06 17.06v93.07c0 9.43-7.64 17.07-17.06 17.07z"/>
			</g>
			<g id="&lt;Group&gt;">
				<path id="&lt;Path&gt;" class="s5" d="m3820.08 669.53h-87.03c-9.42 0-17.06-7.64-17.06-17.06v-93.07c0-9.43 7.64-17.07 17.06-17.07h87.03c9.43 0 17.07 7.64 17.07 17.07v93.07c0 9.42-7.64 17.06-17.07 17.06z"/>
			</g>
			<g id="&lt;Group&gt;">
				<path id="&lt;Path&gt;" class="s5" d="m4145.61 669.53h-251.27c-9.42 0-17.06-7.64-17.06-17.06v-93.07c0-9.43 7.64-17.07 17.06-17.07h251.27c9.42 0 17.06 7.64 17.06 17.07v93.07c0 9.42-7.64 17.06-17.06 17.06z"/>
			</g>
			<g id="&lt;Group&gt;">
				<path id="&lt;Path&gt;" fill-rule="evenodd" class="s5" d="m3941.53 338.12c-35.63 0-64.42-28.79-64.42-64.42 0-35.62 28.79-64.42 64.42-64.42 35.62 0 64.42 28.8 64.42 64.42 0 35.63-28.8 64.42-64.42 64.42z"/>
			</g>
			<g id="&lt;Group&gt;">
				<path id="&lt;Path&gt;" fill-rule="evenodd" class="s5" d="m4098.13 338.12c-35.62 0-64.42-28.79-64.42-64.42 0-35.62 28.8-64.42 64.42-64.42 35.63 0 64.42 28.8 64.42 64.42 0 35.63-28.79 64.42-64.42 64.42z"/>
			</g>
			<g id="&lt;Group&gt;">
				<path id="&lt;Path&gt;" class="s5" d="m3819.97 502.84h-87.03c-9.43 0-17.07-7.64-17.07-17.06v-93.07c0-9.43 7.64-17.07 17.07-17.07h87.03c9.42 0 17.06 7.64 17.06 17.07v93.07c0 9.42-7.64 17.06-17.06 17.06z"/>
			</g>
			<g id="&lt;Group&gt;">
				<path id="&lt;Path&gt;" fill-rule="evenodd" class="s5" d="m3941.53 504.55c-35.63 0-64.42-28.79-64.42-64.42 0-35.62 28.79-64.42 64.42-64.42 35.62 0 64.42 28.8 64.42 64.42 0 35.63-28.8 64.42-64.42 64.42z"/>
			</g>
			<g id="&lt;Group&gt;">
				<path id="&lt;Path&gt;" fill-rule="evenodd" class="s5" d="m4098.13 504.55c-35.62 0-64.42-28.79-64.42-64.42 0-35.62 28.8-64.42 64.42-64.42 35.63 0 64.42 28.8 64.42 64.42 0 35.63-28.79 64.42-64.42 64.42z"/>
			</g>
		</g>
		<g id="&lt;Group&gt;" style="display: none">
			<g id="&lt;Group&gt;">
				<path id="&lt;Path&gt;" class="s1" d="m1816.39 1243.81h-87.03c-9.43 0-17.07-7.64-17.07-17.07v-93.07c0-9.42 7.64-17.06 17.07-17.06h87.03c9.42 0 17.06 7.64 17.06 17.06v93.07c0 9.43-7.64 17.07-17.06 17.07z"/>
			</g>
			<g id="&lt;Group&gt;">
				<path id="&lt;Path&gt;" class="s1" d="m1816.51 1576.92h-87.04c-9.42 0-17.06-7.64-17.06-17.06v-93.07c0-9.43 7.64-17.07 17.06-17.07h87.04c9.42 0 17.06 7.64 17.06 17.07v93.07c0 9.42-7.64 17.06-17.06 17.06z"/>
			</g>
			<g id="&lt;Group&gt;">
				<path id="&lt;Path&gt;" class="s1" d="m2142.03 1576.92h-251.27c-9.42 0-17.06-7.64-17.06-17.06v-93.07c0-9.43 7.64-17.07 17.06-17.07h251.27c9.42 0 17.06 7.64 17.06 17.07v93.07c0 9.42-7.64 17.06-17.06 17.06z"/>
			</g>
			<g id="&lt;Group&gt;">
				<path id="&lt;Path&gt;" fill-rule="evenodd" class="s1" d="m1937.95 1245.51c-35.62 0-64.42-28.79-64.42-64.42 0-35.62 28.8-64.42 64.42-64.42 35.62 0 64.42 28.8 64.42 64.42 0 35.63-28.8 64.42-64.42 64.42z"/>
			</g>
			<g id="&lt;Group&gt;">
				<path id="&lt;Path&gt;" fill-rule="evenodd" class="s1" d="m2094.55 1245.51c-35.62 0-64.42-28.79-64.42-64.42 0-35.62 28.8-64.42 64.42-64.42 35.63 0 64.42 28.8 64.42 64.42 0 35.63-28.79 64.42-64.42 64.42z"/>
			</g>
			<g id="&lt;Group&gt;">
				<path id="&lt;Path&gt;" class="s1" d="m1816.39 1410.23h-87.03c-9.43 0-17.07-7.64-17.07-17.06v-93.07c0-9.43 7.64-17.06 17.07-17.06h87.03c9.42 0 17.06 7.63 17.06 17.06v93.07c0 9.42-7.64 17.06-17.06 17.06z"/>
			</g>
			<g id="&lt;Group&gt;">
				<path id="&lt;Path&gt;" fill-rule="evenodd" class="s1" d="m1937.95 1411.94c-35.62 0-64.42-28.79-64.42-64.42 0-35.62 28.8-64.42 64.42-64.42 35.62 0 64.42 28.8 64.42 64.42 0 35.63-28.8 64.42-64.42 64.42z"/>
			</g>
			<g id="&lt;Group&gt;">
				<path id="&lt;Path&gt;" fill-rule="evenodd" class="s1" d="m2094.55 1411.94c-35.62 0-64.42-28.79-64.42-64.42 0-35.62 28.8-64.42 64.42-64.42 35.63 0 64.42 28.8 64.42 64.42 0 35.63-28.79 64.42-64.42 64.42z"/>
			</g>
		</g>
		<g id="&lt;Group&gt;" style="display: none">
			<g id="&lt;Group&gt;">
				<path id="&lt;Path&gt;" class="s3" d="m2558.36 1243.81h-87.03c-9.42 0-17.06-7.64-17.06-17.07v-93.07c0-9.42 7.64-17.06 17.06-17.06h87.03c9.43 0 17.07 7.64 17.07 17.06v93.07c0 9.43-7.64 17.07-17.07 17.07z"/>
			</g>
			<g id="&lt;Group&gt;">
				<path id="&lt;Path&gt;" class="s3" d="m2558.48 1576.92h-87.03c-9.42 0-17.06-7.64-17.06-17.06v-93.07c0-9.43 7.64-17.07 17.06-17.07h87.03c9.43 0 17.07 7.64 17.07 17.07v93.07c0 9.42-7.64 17.06-17.07 17.06z"/>
			</g>
			<g id="&lt;Group&gt;">
				<path id="&lt;Path&gt;" class="s3" d="m2884.01 1576.92h-251.27c-9.42 0-17.06-7.64-17.06-17.06v-93.07c0-9.43 7.64-17.07 17.06-17.07h251.27c9.42 0 17.06 7.64 17.06 17.07v93.07c0 9.42-7.64 17.06-17.06 17.06z"/>
			</g>
			<g id="&lt;Group&gt;">
				<path id="&lt;Path&gt;" fill-rule="evenodd" class="s3" d="m2679.93 1245.51c-35.63 0-64.42-28.79-64.42-64.42 0-35.62 28.79-64.42 64.42-64.42 35.62 0 64.42 28.8 64.42 64.42 0 35.63-28.8 64.42-64.42 64.42z"/>
			</g>
			<g id="&lt;Group&gt;">
				<path id="&lt;Path&gt;" fill-rule="evenodd" class="s3" d="m2836.53 1245.51c-35.62 0-64.42-28.79-64.42-64.42 0-35.62 28.8-64.42 64.42-64.42 35.63 0 64.42 28.8 64.42 64.42 0 35.63-28.79 64.42-64.42 64.42z"/>
			</g>
			<g id="&lt;Group&gt;">
				<path id="&lt;Path&gt;" class="s3" d="m2558.36 1410.23h-87.03c-9.42 0-17.06-7.64-17.06-17.06v-93.07c0-9.43 7.64-17.06 17.06-17.06h87.03c9.43 0 17.07 7.63 17.07 17.06v93.07c0 9.42-7.64 17.06-17.07 17.06z"/>
			</g>
			<g id="&lt;Group&gt;">
				<path id="&lt;Path&gt;" fill-rule="evenodd" class="s3" d="m2679.93 1411.94c-35.63 0-64.42-28.79-64.42-64.42 0-35.62 28.79-64.42 64.42-64.42 35.62 0 64.42 28.8 64.42 64.42 0 35.63-28.8 64.42-64.42 64.42z"/>
			</g>
			<g id="&lt;Group&gt;">
				<path id="&lt;Path&gt;" fill-rule="evenodd" class="s3" d="m2836.53 1411.94c-35.62 0-64.42-28.79-64.42-64.42 0-35.62 28.8-64.42 64.42-64.42 35.63 0 64.42 28.8 64.42 64.42 0 35.63-28.79 64.42-64.42 64.42z"/>
			</g>
		</g>
		<g id="&lt;Group&gt;" style="display: none">
			<g id="&lt;Group&gt;">
				<g id="&lt;Group&gt;">
					<path id="&lt;Path&gt;" class="s5" d="m3300.34 1243.81h-87.03c-9.42 0-17.06-7.64-17.06-17.07v-93.07c0-9.42 7.64-17.06 17.06-17.06h87.03c9.43 0 17.07 7.64 17.07 17.06v93.07c0 9.43-7.64 17.07-17.07 17.07z"/>
				</g>
				<g id="&lt;Group&gt;">
					<path id="&lt;Path&gt;" class="s5" d="m3300.46 1576.92h-87.03c-9.43 0-17.07-7.64-17.07-17.06v-93.07c0-9.43 7.64-17.07 17.07-17.07h87.03c9.42 0 17.06 7.64 17.06 17.07v93.07c0 9.42-7.64 17.06-17.06 17.06z"/>
				</g>
				<g id="&lt;Group&gt;">
					<path id="&lt;Path&gt;" class="s5" d="m3625.98 1576.92h-251.26c-9.43 0-17.07-7.64-17.07-17.06v-93.07c0-9.43 7.64-17.07 17.07-17.07h251.26c9.43 0 17.07 7.64 17.07 17.07v93.07c0 9.42-7.64 17.06-17.07 17.06z"/>
				</g>
				<g id="&lt;Group&gt;">
					<path id="&lt;Path&gt;" fill-rule="evenodd" class="s5" d="m3421.9 1245.51c-35.62 0-64.42-28.79-64.42-64.42 0-35.62 28.8-64.42 64.42-64.42 35.63 0 64.42 28.8 64.42 64.42 0 35.63-28.79 64.42-64.42 64.42z"/>
				</g>
				<g id="&lt;Group&gt;">
					<path id="&lt;Path&gt;" fill-rule="evenodd" class="s5" d="m3578.51 1245.51c-35.63 0-64.42-28.79-64.42-64.42 0-35.62 28.79-64.42 64.42-64.42 35.62 0 64.42 28.8 64.42 64.42 0 35.63-28.8 64.42-64.42 64.42z"/>
				</g>
				<g id="&lt;Group&gt;">
					<path id="&lt;Path&gt;" class="s5" d="m3300.34 1410.23h-87.03c-9.42 0-17.06-7.64-17.06-17.06v-93.07c0-9.43 7.64-17.06 17.06-17.06h87.03c9.43 0 17.07 7.63 17.07 17.06v93.07c0 9.42-7.64 17.06-17.07 17.06z"/>
				</g>
				<g id="&lt;Group&gt;">
					<path id="&lt;Path&gt;" fill-rule="evenodd" class="s5" d="m3421.9 1411.94c-35.62 0-64.42-28.79-64.42-64.42 0-35.62 28.8-64.42 64.42-64.42 35.63 0 64.42 28.8 64.42 64.42 0 35.63-28.79 64.42-64.42 64.42z"/>
				</g>
				<g id="&lt;Group&gt;">
					<path id="&lt;Path&gt;" fill-rule="evenodd" class="s5" d="m3578.51 1411.94c-35.63 0-64.42-28.79-64.42-64.42 0-35.62 28.79-64.42 64.42-64.42 35.62 0 64.42 28.8 64.42 64.42 0 35.63-28.8 64.42-64.42 64.42z"/>
				</g>
			</g>
		</g>
	</g>
</svg>